<mxfile host="app.diagrams.net" modified="2024-01-05T18:00:14.652Z" agent="Mozilla/5.0 (X11; Linux x86_64) AppleWebKit/537.36 (KHTML, like Gecko) Chrome/120.0.0.0 Safari/537.36" etag="D6TLK31UzzAjEEWNU4Tj" version="22.1.16" type="device">
  <diagram name="Página-1" id="vsMzcOF_icvimuiSTxs0">
    <mxGraphModel dx="1434" dy="772" grid="1" gridSize="10" guides="1" tooltips="1" connect="1" arrows="1" fold="1" page="1" pageScale="1" pageWidth="2339" pageHeight="3300" math="0" shadow="0">
      <root>
        <mxCell id="0" />
        <mxCell id="1" parent="0" />
        <mxCell id="3dtMCi1pdKvcAWIB4-ri-1" value="&lt;b&gt;&lt;font style=&quot;font-size: 14px;&quot;&gt;BaseEducacional.dbo.FNDebitos&lt;/font&gt;&lt;/b&gt;" style="text;html=1;align=center;verticalAlign=middle;resizable=0;points=[];autosize=1;strokeColor=none;fillColor=none;strokeWidth=13;" vertex="1" parent="1">
          <mxGeometry x="115" y="130" width="240" height="30" as="geometry" />
        </mxCell>
        <mxCell id="3dtMCi1pdKvcAWIB4-ri-2" value="&lt;font style=&quot;font-size: 14px;&quot;&gt;&lt;b&gt;INSERT&lt;/b&gt;&lt;/font&gt;" style="text;html=1;align=center;verticalAlign=middle;resizable=0;points=[];autosize=1;strokeColor=none;fillColor=none;" vertex="1" parent="1">
          <mxGeometry x="288" y="186.38" width="70" height="30" as="geometry" />
        </mxCell>
        <mxCell id="3dtMCi1pdKvcAWIB4-ri-3" value="" style="endArrow=classic;html=1;rounded=0;entryX=0.959;entryY=1.043;entryDx=0;entryDy=0;entryPerimeter=0;" edge="1" parent="1">
          <mxGeometry width="50" height="50" relative="1" as="geometry">
            <mxPoint x="280.5" y="218.41999999999996" as="sourcePoint" />
            <mxPoint x="379.5799999999999" y="217.66999999999996" as="targetPoint" />
          </mxGeometry>
        </mxCell>
        <mxCell id="3dtMCi1pdKvcAWIB4-ri-4" value="" style="group;fillColor=default;" vertex="1" connectable="0" parent="1">
          <mxGeometry x="197.5" y="160" width="75" height="104.12000000000006" as="geometry" />
        </mxCell>
        <mxCell id="3dtMCi1pdKvcAWIB4-ri-5" value="" style="shape=cylinder3;whiteSpace=wrap;html=1;boundedLbl=1;backgroundOutline=1;size=15;fillColor=default;" vertex="1" parent="3dtMCi1pdKvcAWIB4-ri-4">
          <mxGeometry y="42.125" width="75" height="48.125" as="geometry" />
        </mxCell>
        <mxCell id="3dtMCi1pdKvcAWIB4-ri-6" value="" style="shape=cylinder3;whiteSpace=wrap;html=1;boundedLbl=1;backgroundOutline=1;size=15;fillColor=default;" vertex="1" parent="3dtMCi1pdKvcAWIB4-ri-4">
          <mxGeometry y="24.0625" width="75" height="48.125" as="geometry" />
        </mxCell>
        <mxCell id="3dtMCi1pdKvcAWIB4-ri-7" value="" style="shape=cylinder3;whiteSpace=wrap;html=1;boundedLbl=1;backgroundOutline=1;size=15;fillColor=default;" vertex="1" parent="3dtMCi1pdKvcAWIB4-ri-4">
          <mxGeometry y="6" width="75" height="48.125" as="geometry" />
        </mxCell>
        <mxCell id="3dtMCi1pdKvcAWIB4-ri-8" value="" style="ellipse;whiteSpace=wrap;html=1;fillColor=default;" vertex="1" parent="3dtMCi1pdKvcAWIB4-ri-4">
          <mxGeometry x="60.875" y="56.741365740740775" width="5.625" height="4.90162037037037" as="geometry" />
        </mxCell>
        <mxCell id="3dtMCi1pdKvcAWIB4-ri-9" value="" style="ellipse;whiteSpace=wrap;html=1;fillColor=default;" vertex="1" parent="3dtMCi1pdKvcAWIB4-ri-4">
          <mxGeometry x="60.875" y="37.48094907407408" width="5.625" height="4.90162037037037" as="geometry" />
        </mxCell>
        <mxCell id="3dtMCi1pdKvcAWIB4-ri-10" value="" style="ellipse;whiteSpace=wrap;html=1;fillColor=default;" vertex="1" parent="1">
          <mxGeometry x="258.20833333333337" y="234.80386574074078" width="5.625" height="4.90162037037037" as="geometry" />
        </mxCell>
        <mxCell id="3dtMCi1pdKvcAWIB4-ri-11" style="edgeStyle=orthogonalEdgeStyle;rounded=0;orthogonalLoop=1;jettySize=auto;html=1;fontFamily=Helvetica;fontSize=16;fontColor=default;startSize=30;" edge="1" parent="1" source="3dtMCi1pdKvcAWIB4-ri-12">
          <mxGeometry relative="1" as="geometry">
            <mxPoint x="190" y="213.78500000000008" as="targetPoint" />
          </mxGeometry>
        </mxCell>
        <mxCell id="3dtMCi1pdKvcAWIB4-ri-12" value="" style="ellipse;whiteSpace=wrap;html=1;aspect=fixed;strokeColor=#82b366;align=center;verticalAlign=middle;fontFamily=Helvetica;fontSize=16;startSize=30;fillColor=#d5e8d4;" vertex="1" parent="1">
          <mxGeometry x="100" y="192.76999999999998" width="42.03" height="42.03" as="geometry" />
        </mxCell>
        <mxCell id="3dtMCi1pdKvcAWIB4-ri-13" value="&lt;font style=&quot;font-size: 10px;&quot;&gt;Débito&lt;/font&gt;" style="text;html=1;align=center;verticalAlign=middle;resizable=0;points=[];autosize=1;strokeColor=none;fillColor=none;" vertex="1" parent="1">
          <mxGeometry x="298.8299999999999" y="216.38" width="50" height="30" as="geometry" />
        </mxCell>
        <mxCell id="3dtMCi1pdKvcAWIB4-ri-14" value="" style="group" vertex="1" connectable="0" parent="1">
          <mxGeometry x="382.21000000000004" y="138.77999999999997" width="405" height="150" as="geometry" />
        </mxCell>
        <mxCell id="3dtMCi1pdKvcAWIB4-ri-15" value="" style="rhombus;whiteSpace=wrap;html=1;strokeColor=default;align=center;verticalAlign=middle;fontFamily=Helvetica;fontSize=16;fontColor=default;startSize=30;fillColor=default;" vertex="1" parent="3dtMCi1pdKvcAWIB4-ri-14">
          <mxGeometry y="7.281553398058253" width="265.5784403669724" height="142.71844660194174" as="geometry" />
        </mxCell>
        <mxCell id="3dtMCi1pdKvcAWIB4-ri-16" value="O débito já foi&lt;br&gt;importado&amp;nbsp;&lt;br&gt;?" style="text;html=1;align=center;verticalAlign=middle;resizable=0;points=[];autosize=1;strokeColor=none;fillColor=none;fontSize=16;fontFamily=Helvetica;fontColor=default;" vertex="1" parent="3dtMCi1pdKvcAWIB4-ri-14">
          <mxGeometry x="72.7919675954233" y="50.568758617060766" width="120" height="70" as="geometry" />
        </mxCell>
        <mxCell id="3dtMCi1pdKvcAWIB4-ri-17" value="Não" style="text;html=1;align=center;verticalAlign=middle;resizable=0;points=[];autosize=1;strokeColor=none;fillColor=none;" vertex="1" parent="3dtMCi1pdKvcAWIB4-ri-14">
          <mxGeometry x="267.7884403669724" y="51.216878980891714" width="50" height="30" as="geometry" />
        </mxCell>
        <mxCell id="3dtMCi1pdKvcAWIB4-ri-29" style="edgeStyle=orthogonalEdgeStyle;rounded=0;orthogonalLoop=1;jettySize=auto;html=1;exitX=0.5;exitY=1;exitDx=0;exitDy=0;entryX=0.5;entryY=0;entryDx=0;entryDy=0;" edge="1" parent="1" source="3dtMCi1pdKvcAWIB4-ri-19" target="3dtMCi1pdKvcAWIB4-ri-28">
          <mxGeometry relative="1" as="geometry" />
        </mxCell>
        <mxCell id="3dtMCi1pdKvcAWIB4-ri-19" value="Atualiza o agendamento com as informações atualizadas do débito" style="whiteSpace=wrap;html=1;strokeColor=default;align=center;verticalAlign=middle;fontFamily=Helvetica;fontSize=16;fontColor=default;startSize=30;fillColor=default;" vertex="1" parent="1">
          <mxGeometry x="404" y="346" width="228" height="70" as="geometry" />
        </mxCell>
        <mxCell id="3dtMCi1pdKvcAWIB4-ri-20" style="edgeStyle=orthogonalEdgeStyle;rounded=0;orthogonalLoop=1;jettySize=auto;html=1;exitX=0.5;exitY=1;exitDx=0;exitDy=0;entryX=0.486;entryY=-0.025;entryDx=0;entryDy=0;entryPerimeter=0;" edge="1" parent="1" source="3dtMCi1pdKvcAWIB4-ri-15" target="3dtMCi1pdKvcAWIB4-ri-19">
          <mxGeometry relative="1" as="geometry" />
        </mxCell>
        <mxCell id="3dtMCi1pdKvcAWIB4-ri-21" value="Sim" style="text;html=1;align=center;verticalAlign=middle;resizable=0;points=[];autosize=1;strokeColor=none;fillColor=none;" vertex="1" parent="1">
          <mxGeometry x="470.79999999999995" y="296" width="40" height="30" as="geometry" />
        </mxCell>
        <mxCell id="3dtMCi1pdKvcAWIB4-ri-27" style="edgeStyle=orthogonalEdgeStyle;rounded=0;orthogonalLoop=1;jettySize=auto;html=1;exitX=1;exitY=0.5;exitDx=0;exitDy=0;entryX=0;entryY=0.5;entryDx=0;entryDy=0;" edge="1" parent="1" source="3dtMCi1pdKvcAWIB4-ri-24" target="3dtMCi1pdKvcAWIB4-ri-26">
          <mxGeometry relative="1" as="geometry" />
        </mxCell>
        <mxCell id="3dtMCi1pdKvcAWIB4-ri-24" value="Erro!" style="whiteSpace=wrap;html=1;strokeColor=default;align=center;verticalAlign=middle;fontFamily=Helvetica;fontSize=16;fontColor=default;startSize=30;fillColor=default;" vertex="1" parent="1">
          <mxGeometry x="710" y="182.42" width="90" height="70" as="geometry" />
        </mxCell>
        <mxCell id="3dtMCi1pdKvcAWIB4-ri-25" style="edgeStyle=orthogonalEdgeStyle;rounded=0;orthogonalLoop=1;jettySize=auto;html=1;exitX=1;exitY=0.5;exitDx=0;exitDy=0;entryX=0;entryY=0.5;entryDx=0;entryDy=0;" edge="1" parent="1" source="3dtMCi1pdKvcAWIB4-ri-15" target="3dtMCi1pdKvcAWIB4-ri-24">
          <mxGeometry relative="1" as="geometry" />
        </mxCell>
        <mxCell id="3dtMCi1pdKvcAWIB4-ri-26" value="" style="ellipse;whiteSpace=wrap;html=1;aspect=fixed;strokeColor=#ae4132;align=center;verticalAlign=middle;fontFamily=Helvetica;fontSize=16;startSize=30;fillColor=#fad9d5;" vertex="1" parent="1">
          <mxGeometry x="830" y="196.4" width="42.03" height="42.03" as="geometry" />
        </mxCell>
        <mxCell id="3dtMCi1pdKvcAWIB4-ri-28" value="" style="ellipse;whiteSpace=wrap;html=1;aspect=fixed;strokeColor=#ae4132;align=center;verticalAlign=middle;fontFamily=Helvetica;fontSize=16;startSize=30;fillColor=#fad9d5;" vertex="1" parent="1">
          <mxGeometry x="496.98" y="460" width="42.03" height="42.03" as="geometry" />
        </mxCell>
      </root>
    </mxGraphModel>
  </diagram>
</mxfile>
